<svg version="1.1" id="Layer_1" xmlns="http://www.w3.org/2000/svg" xmlns:xlink="http://www.w3.org/1999/xlink" x="0px" y="0px"
	 width="147.225px" height="150px" viewBox="0 0 147.225 150" enable-background="new 0 0 147.225 150" xml:space="preserve">
<path fill="#F04923" d="M18.047,109.417c3.399-2.807,8.427-2.331,11.235,1.065c3.289,3.973,7.031,7.351,11.058,10.203
	c-0.358-0.408-0.76-0.79-1.211-1.131C16.218,102.336,9.74,71.199,23.067,46.459c0.919-1.706,1.929-3.381,3.037-5.021
	C43.147,16.257,76.939,8.7,103.044,24.239c0.187,0.111,0.39,0.174,0.582,0.27c1.296,0.798,2.554,1.665,3.786,2.566
	c2.296,1.679,4.483,3.529,6.534,5.564c0.502,0.496,0.993,1.001,1.478,1.518c0.193,0.207,0.381,0.408,0.571,0.619
	c1.545,1.701,2.994,3.52,4.351,5.437c0.467,0.66,0.936,1.317,1.372,2.001c2.389,3.704,7.334,4.77,11.036,2.378
	c3.704-2.39,4.776-7.303,2.378-11.033c-3.174-4.921-6.857-9.333-10.923-13.224C101.316-1.559,66.01-6.731,37.297,9.519
	C25.259,16.331,15.873,26.045,9.52,37.292C-2.127,57.908-3.547,83.695,7.821,106.329c0.058,0.121,0.123,0.242,0.189,0.355
	c0.089,0.158,0.208,0.287,0.307,0.435c2.116,4.133,4.661,8.08,7.581,11.8C14.408,115.709,15.194,111.779,18.047,109.417z"/>
<path fill="#F6891F" d="M124.209,20.336c4.065,3.891,7.749,8.303,10.923,13.224c2.398,3.73,1.326,8.644-2.378,11.033
	c-3.702,2.392-8.647,1.326-11.036-2.378c-0.437-0.685-0.905-1.341-1.372-2.001c0.18,0.407,0.382,0.806,0.641,1.188
	c13.133,19.195,13.147,43.383,1.834,62.075c-0.489,0.803-0.998,1.596-1.529,2.379c-2.02,2.988-4.286,5.716-6.735,8.199
	c-18.259,18.492-47.287,22.721-70.323,8.932c-0.521-0.312-1.063-0.543-1.614-0.724c-0.773-0.494-1.521-1.043-2.278-1.577
	c-4.026-2.853-7.769-6.23-11.058-10.203c-2.809-3.396-7.836-3.872-11.235-1.065c-2.854,2.362-3.64,6.292-2.149,9.502
	c0.218,0.479,0.485,0.941,0.809,1.382c0.09,0.121,0.182,0.238,0.277,0.355c7.982,9.651,17.954,16.738,28.848,21.162
	c17.313,7.031,36.954,7.296,54.689,0.278c5.784-2.289,11.37-5.334,16.6-9.191c2.985-2.201,5.737-4.603,8.292-7.142
	c5.219-5.182,9.55-10.991,12.909-17.232c0.101-0.181,0.188-0.367,0.285-0.548c0.411-0.78,0.82-1.564,1.204-2.354
	C153.844,76.847,147.581,42.338,124.209,20.336z"/>
<path fill="#D1D3D4" d="M100.521,142.097c-17.735,7.018-37.377,6.753-54.689-0.278c-13.591,0.78-22.645,2.171-22.645,3.759
	c0,2.441,21.416,4.423,47.839,4.423c26.419,0,47.839-1.981,47.839-4.423C118.865,144.164,111.684,142.906,100.521,142.097z
	 M43.962,74.871c-3.386-0.702-6.354-3.044-10.041-2.601c-2.44,0.297-2.826,3.02-2.991,4.177
	c-0.757,18.719,3.265,20.641,5.196,21.563c12.568,4.004,14.746,3.851,14.569-1.042c-2.405-19.908,0.677-19.764,6.271-19.5
	c9.022,0.876,11.743,1.142,12.76-3.566c0.07-0.319,0.091-0.756,0.131-1.083c0.415-15.351,0.415-15.351-3.665-16.05
	c-9.508-0.586-11.766-0.726-9.984-7.034c2.76-7.72,2.76-7.72,1.065-8.31c-6.034-1.018-6.034-1.018-8.127,1.813
	c-5.979,9.355-5.979,9.355-8.692,8.616c-3.015-1.152-4.525-1.73-0.63-7.301c2.554-3.378,3.742-4.6,6.103-7.039
	c3.1-3.193,2.984-3.859,2.871-4.502c-0.958-0.787-1.072-0.974-1.5-1.666c-0.459-0.077-1.324-0.218-4.838,2.33
	c-11.327,9.25-11.198,13.062-11.148,13.468c0.816,1.599,2.801,2.268,3.285,4.133c0.244,0.951-0.481,2.685-1.117,4.212
	c-2.18,4.98-3.748,8.58-1.375,10.203c5.639,2.311,6.814,2.79,8.203-1.358c2.56-9.146,3.389-10.342,6.83-9.827
	c4.891,1.007,6.206,1.277,4.938,7.916C49.333,75.745,49.333,75.745,43.962,74.871z M60.37,54.324
	c11.341,0.979,11.559,0.998,11.756,6.889c-0.195,7.349-0.242,9.093,3.607,9.484c9.521-0.1,11.239-0.115,11.207-4.519
	c-1.095-10.176-1.161-10.784,3.496-11.521c5.474-0.678,7.124-0.884,8.964,5.12c3.787,14.386,3.787,14.386,7.589,14.039
	c9.352-2.277,11.036-2.688,10.257-8.043c-0.052-0.346-0.166-0.793-0.239-1.135c-3.603-11.603-5.985-15.322-9.444-14.734
	c-8.759,3.036-10.012,2.859-12.221-1.729c-2.29-5.4-3.238-7.636-5.981-7.599c-6.738,0.912-6.738,0.912-6.333,3.982
	c1.755,8.575,1.981,9.678-2.317,10.149c-5.355,0.176-7.571,0.251-7.565-6.259c0.358-9.279,0.408-10.702,4.332-10.956
	c8.055-0.278,9.501-0.328,7.391-4.272c-1.972-3.004-4.949-7.542-9.223-10.043c-0.144,0.024-0.337,0.042-0.48,0.059
	c-0.266,0.695-0.44,1.515-0.525,1.942C72.84,36.852,72.84,36.852,69.73,36.94c-6.168-0.308-6.409-0.319-8.385,3.344
	C57.673,48.638,55.646,53.241,60.37,54.324z M93.211,115.897c-13.536,1.936-13.536,1.936-14.13,3.784
	c-0.358,1.854-1.626,3.476-1.412,5.478c0.429,0.164,0.476,0.182,1.216,0.153c4.875-0.351,7.273-0.791,9.883-1.806
	c5.143-2.255,8.296-7.496,13.813-9.191c3.881-1.076,5.653-1.566,8.489-4.99c0.182-0.222,0.405-0.525,0.583-0.751
	c0.383-0.563,0.91-1.3,1.274-1.878c1.13-1.797,6.543-10.7,2.173-9.64c-7.528,2.696-9.884,3.258-9.457-2.862
	c0.654-5.936,0.983-8.912-2.942-8.662c-11.268,1.993-11.268,1.993-11.693,5.605c-0.236,8.357-0.293,10.344-6.496,10.943
	c-6.468,0.32-8.648,0.426-8.876-5.539c-0.037-13.108-0.039-14.479-5.705-15.19c-15.998-0.507-15.998-0.507-16.489,4.729
	c0.206,12.59,0.256,15.581,6.236,16.673c15.79,1.291,15.79,1.291,16.136,4.556c-0.026,5.952-0.028,6.572,3.186,6.735
	c8.395-0.34,9.473-0.383,10.505-3.231c1.851-8.391,1.851-8.391,6.202-9.151c6.239-0.898,8.343-1.203,6.78,4.337
	C99.966,113.055,98.727,114.952,93.211,115.897z"/>
</svg>
