<svg version="1.1" id="Layer_1" xmlns="http://www.w3.org/2000/svg" xmlns:xlink="http://www.w3.org/1999/xlink" x="0px" y="0px"
	 width="224.857px" height="120px" viewBox="0 0 224.857 120" enable-background="new 0 0 224.857 120" xml:space="preserve">
<path fill="#0F5584" d="M176.061,73.418l-14.072,16.003l-0.896-16.935l-47.694,12.103l-0.338,5.627
	c-0.056,0.877-0.941,1.777-1.979,2.013l-7.574,1.711c-0.969,0.217-1.707-0.285-1.655-1.121l0.381-6.327
	c0-0.007,0.004-0.013,0.004-0.019c0.035-0.779-0.619-1.229-1.484-1.068c-0.043,0.008-0.08-0.002-0.126,0.011
	c-0.008,0.002-0.016,0.006-0.023,0.008l-6.953,1.835c-0.888,0.232-1.568-0.23-1.519-1.031l0.363-6.061
	c0.047-0.801,0.806-1.667,1.697-1.938l6.967-2.099c0.952-0.284,1.689,0.159,1.641,0.994l-0.381,6.326
	c0.002,0.008-0.002,0.016-0.005,0.021c-0.017,0.41,0.157,0.73,0.452,0.918c0.3,0.184,0.718,0.236,1.195,0.109l7.578-1.998
	c1.036-0.271,1.928-1.203,1.979-2.079l0.396-6.608c0.055-0.871-0.754-1.328-1.795-1.011l-7.596,2.287
	c-0.008,0.002-0.012,0.007-0.02,0.009c-0.949,0.274-1.687-0.147-1.654-0.957c0-0.011,0.004-0.021,0.005-0.031l0.381-6.334
	c0.001-0.012-0.003-0.02-0.003-0.027c0.07-0.825,0.884-1.746,1.838-2.077c0.008,0,0.013-0.002,0.021-0.003l7.614-2.581
	c1.041-0.356,1.936-1.353,1.987-2.226l0.396-6.607c0.053-0.875-0.756-1.263-1.803-0.868l-7.632,2.869
	c-0.977,0.367-1.803,1.341-1.853,2.177l-0.358,5.937l-0.004-0.001l-0.022,0.385c-0.05,0.827-0.857,1.761-1.8,2.089
	c-0.01,0.004-0.017,0.004-0.023,0.006l-6.636,2.25v-0.006l-0.355,0.12c-0.012,0.003-0.021,0.009-0.031,0.009
	c-0.875,0.311-1.609,1.192-1.669,1.979c0,0.005,0.003,0.008,0.001,0.015l-0.362,6.059c-0.05,0.803-0.802,1.666-1.677,1.931
	l-6.399,1.928c-0.821,0.25-1.445-0.177-1.398-0.946l0.35-5.813c0.046-0.769,0.747-1.616,1.568-1.894l6.021-2.041l-0.004-0.004
	l0.397-0.137c0.871-0.295,1.617-1.174,1.679-1.971c0-0.008-0.003-0.012-0.003-0.02l0.365-6.061c0.048-0.799,0.809-1.723,1.705-2.058
	l0.355-0.135l0.002-0.014l6.623-2.494c0.731-0.274,1.378-0.909,1.665-1.567c0.101-0.217,0.163-0.436,0.177-0.646l0.381-6.328
	c0-0.005-0.003-0.008-0.003-0.012c0.091-0.809,0.87-1.758,1.804-2.16c0.013-0.006,0.021-0.009,0.031-0.015l7.672-3.169
	c0.012-0.005,0.023-0.011,0.035-0.019c1.023-0.407,1.813-0.045,1.77,0.807c0,0.003-0.002,0.01-0.002,0.017l-0.397,6.606
	c-0.051,0.875,0.764,1.26,1.834,0.858l8.363-3.15c1.147-0.43,2.131-1.525,2.186-2.443l0.416-6.922
	c0.055-0.918-0.84-1.273-1.99-0.797l-7.896,3.264l0.006-0.008l-0.494,0.206c-1.063,0.439-1.873,0.094-1.836-0.766
	c0-0.007,0.004-0.015,0.004-0.022l0.369-6.132l35.563-15.741c-1.42-0.967-2.87-1.632-4.245-1.866L10.865,0.222
	c-8.502-1.443-13.02,4.312-9.85,12.897l28.733,90.874c3.173,8.585,12.174,14.96,19.883,14.26L185.49,120
	c4.195-0.382,5.695-5.641,3.439-11.754L176.061,73.418z"/>
<path fill="#44C8F5" d="M95.826,51.131l6.984-2.89c0.027-0.011,0.051-0.033,0.077-0.045c0.016-0.003,0.032-0.006,0.05-0.012
	c0.096-0.047,0.18-0.119,0.272-0.176c0.115-0.071,0.229-0.132,0.337-0.218c0.045-0.036,0.078-0.08,0.121-0.117
	c0.537-0.476,0.934-1.097,0.968-1.656l0.378-6.301c0.051-0.833-0.689-1.156-1.646-0.724l-7.002,3.151
	c-0.895,0.405-1.656,1.376-1.705,2.175l-0.363,6.034C94.25,51.152,94.93,51.5,95.826,51.131z M82.178,87.957L76.59,89.49
	l0.004-0.006l-0.35,0.096c-0.756,0.208-1.33-0.217-1.295-0.947c0-0.007,0.003-0.014,0.004-0.021l0.338-5.601
	c0.043-0.744-0.533-1.152-1.283-0.92l-5.516,1.723c-0.709,0.219-1.314,0.974-1.355,1.688l-0.324,5.393
	c0,0.006,0.002,0.009,0.002,0.016c-0.053,0.71-0.646,1.432-1.334,1.623l-0.316,0.084l0.001,0.003l-4.778,1.31
	c-0.656,0.18-1.215,0.881-1.258,1.57l-0.313,5.196c-0.04,0.69,0.453,1.122,1.107,0.966l5.078-1.199
	c0.691-0.165,1.29-0.875,1.333-1.589l0.323-5.39c0.002-0.006,0-0.01,0.002-0.014c0.049-0.7,0.635-1.425,1.324-1.629
	c0.008-0.002,0.016-0.002,0.023-0.003l5.506-1.51c0.01-0.001,0.018-0.006,0.025-0.008c0.73-0.189,1.287,0.246,1.252,0.969
	c-0.002,0.004-0.004,0.01-0.004,0.016l-0.335,5.602c-0.044,0.742,0.531,1.198,1.29,1.018l5.923-1.398
	c0.807-0.191,1.504-0.972,1.55-1.743l0.351-5.831C83.613,88.18,82.988,87.736,82.178,87.957z M157.42,3.093l0.719,13.552
	l-41.82,18.509l-0.369,6.132c0,0.007-0.004,0.015-0.004,0.022c-0.037,0.859,0.773,1.205,1.836,0.766l0.494-0.206l-0.006,0.008
	l7.896-3.264c1.15-0.476,2.045-0.122,1.99,0.797l-0.416,6.922c-0.055,0.918-1.037,2.014-2.186,2.443l-8.363,3.15
	c-1.07,0.401-1.885,0.016-1.834-0.858l0.398-6.606c0-0.007,0.002-0.014,0.002-0.017c0.043-0.852-0.746-1.214-1.77-0.807
	c-0.012,0.007-0.023,0.013-0.035,0.019l-7.672,3.169c-0.01,0.005-0.02,0.009-0.031,0.015c-0.934,0.401-1.713,1.351-1.804,2.16
	c0,0.004,0.003,0.007,0.003,0.012l-0.381,6.328c-0.014,0.21-0.076,0.43-0.177,0.646c-0.287,0.659-0.933,1.293-1.665,1.567
	l-6.623,2.494l-0.002,0.014l-0.355,0.135c-0.897,0.336-1.657,1.258-1.705,2.058l-0.365,6.061c0,0.007,0.002,0.012,0.002,0.019
	c-0.061,0.797-0.807,1.676-1.678,1.971l-0.398,0.136l0.004,0.005l-6.021,2.041c-0.822,0.277-1.523,1.125-1.569,1.893l-0.349,5.814
	c-0.047,0.77,0.577,1.196,1.398,0.946l6.4-1.928c0.875-0.264,1.627-1.128,1.676-1.931l0.363-6.058
	c0.002-0.007-0.001-0.01-0.001-0.015c0.059-0.788,0.794-1.669,1.669-1.979c0.01-0.001,0.02-0.006,0.031-0.009l0.355-0.12v0.005
	l6.636-2.249c0.008-0.003,0.015-0.003,0.024-0.006c0.941-0.33,1.75-1.263,1.799-2.089l0.023-0.385l0.004,0.001l0.358-5.937
	c0.05-0.836,0.876-1.811,1.853-2.177l7.631-2.869c1.047-0.395,1.855-0.007,1.803,0.868l-0.396,6.608
	c-0.053,0.873-0.947,1.868-1.988,2.225l-7.614,2.581c-0.008,0.001-0.013,0.003-0.02,0.003c-0.954,0.331-1.768,1.252-1.838,2.077
	c0,0.008,0.004,0.016,0.003,0.028l-0.381,6.333c-0.001,0.012-0.005,0.021-0.005,0.031c-0.031,0.81,0.705,1.232,1.654,0.957
	c0.008-0.002,0.012-0.005,0.02-0.008l7.595-2.287c1.041-0.316,1.85,0.139,1.795,1.01l-0.396,6.609
	c-0.053,0.875-0.943,1.807-1.98,2.079l-7.578,1.998c-0.478,0.126-0.896,0.074-1.195-0.109c-0.295-0.188-0.469-0.508-0.452-0.918
	c0.003-0.006,0.007-0.014,0.005-0.021l0.381-6.326c0.049-0.835-0.688-1.278-1.641-0.994l-6.967,2.099
	c-0.892,0.27-1.65,1.136-1.697,1.937l-0.363,6.061c-0.051,0.801,0.63,1.264,1.518,1.031l6.953-1.835
	c0.009-0.001,0.017-0.005,0.024-0.008c0.046-0.012,0.083-0.003,0.126-0.011c0.865-0.16,1.52,0.289,1.484,1.069
	c0,0.006-0.004,0.012-0.004,0.018l-0.381,6.327c-0.051,0.836,0.688,1.338,1.656,1.122l7.574-1.711
	c1.037-0.236,1.924-1.136,1.979-2.013l0.338-5.627l47.695-12.102l0.896,16.934l62.869-71.49L157.42,3.093z M71.874,74.209
	l5.677-1.993c0.773-0.275,1.44-1.106,1.488-1.858l0.342-5.69c0-0.004-0.002-0.01-0.002-0.016c0.053-0.739,0.705-1.582,1.479-1.898
	c0.01-0.002,0.02-0.004,0.027-0.009l6.158-2.395c0.842-0.327,1.566-1.23,1.613-2.014l0.354-5.924
	c0.047-0.782-0.603-1.126-1.442-0.766l-6.174,2.629c-0.793,0.338-1.467,1.219-1.512,1.972l-0.342,5.69
	c0,0.006,0.002,0.012,0.002,0.019c-0.057,0.748-0.719,1.592-1.488,1.89l-0.355,0.14l0.005,0.001l-5.339,2.078
	c-0.731,0.283-1.357,1.098-1.401,1.825l-0.326,5.472C70.594,74.088,71.146,74.467,71.874,74.209z"/>
</svg>