<svg version="1.1" id="Layer_1" xmlns="http://www.w3.org/2000/svg" xmlns:xlink="http://www.w3.org/1999/xlink" x="0px" y="0px"
	 width="109.303px" height="146.657px" viewBox="0 0 109.303 146.657" enable-background="new 0 0 109.303 146.657"
	 xml:space="preserve">
<path fill="#2D64AE" d="M64.185,78.234l0.496,14.873c0,0-54.042-0.496-62.471-36.689c0,0-18.334,46.707,50.677,61.48H50.3v8.925
	h8.925v-7.707c2.693,0.465,5.495,0.89,8.432,1.261l0.496,12.892l41.15-22.809L64.185,78.234z M54.764,140.709h9.917v-9.918h-9.917
	V140.709z M39.892,125.833h-8.925v8.924h8.925V125.833z M33.443,146.657h6.94v-6.944h-6.94V146.657z M18.383,141.389h4.34v-4.339
	h-4.34V141.389z M8.959,131.473h4.343v-4.34H8.959V131.473z M44.657,141.389H49v-4.343h-4.343V141.389z"/>
<path fill="#00B4E7" d="M56.422,28.757h2.58v-8.924h-8.924v7.704c-2.692-0.465-5.493-0.889-8.429-1.26L41.15,13.389L0,36.193
	l45.118,32.229l-0.496-14.875c0,0,54.046,0.496,62.471,36.689C107.093,90.237,125.426,43.532,56.422,28.757z M54.539,5.948h-9.917
	v9.917h9.917V5.948z M69.415,20.823h8.921V11.9h-8.921V20.823z M75.859,0h-6.944v6.94h6.944V0z M90.92,5.266h-4.34v4.342h4.34V5.266
	z M100.344,15.185h-4.343v4.34h4.343V15.185z M64.646,5.268h-4.343v4.34h4.343V5.268z"/>
</svg>