<svg version="1.1" id="Layer_1" xmlns="http://www.w3.org/2000/svg" xmlns:xlink="http://www.w3.org/1999/xlink" x="0px" y="0px"
	 width="140px" height="140px" viewBox="0 0 140 140" enable-background="new 0 0 140 140" xml:space="preserve">
<path fill="#656262" d="M37.672,69.999c0,17.854,14.477,32.33,32.328,32.33c17.855,0,32.328-14.475,32.328-32.33
	c0-17.853-14.473-32.326-32.328-32.326C52.148,37.672,37.672,52.146,37.672,69.999z"/>
<path fill="#A1CD3A" d="M120.67,21.795v48.204c0,27.985-22.684,50.671-50.67,50.671S19.328,97.984,19.328,69.999
	c0-27.984,22.686-50.67,50.672-50.67c12.291,0,23.557,4.381,32.328,11.658V7.949C92.652,2.897,81.674,0,70,0
	C31.34,0,0,31.34,0,69.999C0,108.658,31.34,140,70,140c38.658,0,70-31.342,70-70.001C140,51.297,132.621,34.351,120.67,21.795z"/>
</svg>